<svg width="147" height="15" viewBox="0 0 147 15" fill="none" xmlns="http://www.w3.org/2000/svg">
<path d="M3.08 15C2.53333 15 2.03333 14.8667 1.58 14.6C1.14 14.3333 0.786667 13.98 0.52 13.54C0.253333 13.0867 0.12 12.5867 0.12 12.04V3.56C0.12 3.01333 0.253333 2.52 0.52 2.08C0.786667 1.62667 1.14 1.26667 1.58 0.999999C2.03333 0.733333 2.53333 0.599999 3.08 0.599999H14.48V3.72H3.88C3.66667 3.72 3.5 3.77333 3.38 3.88C3.27333 3.98667 3.22 4.15333 3.22 4.38V11.22C3.22 11.4333 3.27333 11.6 3.38 11.72C3.5 11.8267 3.66667 11.88 3.88 11.88H14.48V15H3.08ZM27.7453 15L23.5653 10.02H27.6253L30.9453 13.94V15H27.7453ZM16.5653 15V0.619999H27.9853C28.532 0.619999 29.0253 0.753332 29.4653 1.02C29.9186 1.28667 30.2786 1.64667 30.5453 2.1C30.8253 2.55333 30.9653 3.04667 30.9653 3.58V7.3C30.9653 7.83333 30.8253 8.32667 30.5453 8.78C30.2786 9.23333 29.9186 9.59333 29.4653 9.86C29.0253 10.1267 28.532 10.26 27.9853 10.26L19.6653 10.28V15H16.5653ZM19.6653 7.14H27.8253V3.72H19.6653V7.14ZM32.5692 15V0.599999H35.6292V15H32.5692ZM37.3466 15V0.619999H48.7666C49.3132 0.619999 49.8066 0.753332 50.2466 1.02C50.6999 1.28667 51.0599 1.64667 51.3266 2.1C51.6066 2.55333 51.7466 3.04667 51.7466 3.58V7.3C51.7466 7.83333 51.6066 8.32667 51.3266 8.78C51.0599 9.23333 50.6999 9.59333 50.2466 9.86C49.8066 10.1267 49.3132 10.26 48.7666 10.26L40.4466 10.28V15H37.3466ZM40.4466 7.14H48.6066V3.72H40.4466V7.14ZM58.0869 15V3.72H52.4469V0.599999H66.8469V3.72H61.2069V15H58.0869ZM71.2627 15C70.7293 15 70.236 14.8667 69.7827 14.6C69.3293 14.3333 68.9693 13.9733 68.7027 13.52C68.436 13.0667 68.3027 12.5733 68.3027 12.04V3.56C68.3027 3.01333 68.436 2.52 68.7027 2.08C68.9693 1.62667 69.3293 1.26667 69.7827 0.999999C70.236 0.733333 70.7293 0.599999 71.2627 0.599999H79.7427C80.276 0.599999 80.7627 0.733333 81.2027 0.999999C81.656 1.26667 82.016 1.62667 82.2827 2.08C82.5627 2.52 82.7027 3.01333 82.7027 3.56V12.04C82.7027 12.5733 82.5627 13.0667 82.2827 13.52C82.016 13.9733 81.656 14.3333 81.2027 14.6C80.7627 14.8667 80.276 15 79.7427 15H71.2627ZM71.4027 11.88H79.5627V3.72H71.4027V11.88ZM84.9652 10.62V7.56H93.3052V10.62H84.9652ZM98.1972 15C97.6505 15 97.1505 14.8667 96.6972 14.6C96.2572 14.3333 95.9039 13.98 95.6372 13.54C95.3705 13.0867 95.2372 12.5867 95.2372 12.04V3.56C95.2372 3.01333 95.3705 2.52 95.6372 2.08C95.9039 1.62667 96.2572 1.26667 96.6972 0.999999C97.1505 0.733333 97.6505 0.599999 98.1972 0.599999H109.597V3.72H98.9972C98.7839 3.72 98.6172 3.77333 98.4972 3.88C98.3905 3.98667 98.3372 4.15333 98.3372 4.38V11.22C98.3372 11.4333 98.3905 11.6 98.4972 11.72C98.6172 11.8267 98.7839 11.88 98.9972 11.88H109.597V15H98.1972ZM111.183 15V0.599999H114.243V15H111.183ZM121.27 15V3.72H115.63V0.599999H130.03V3.72H124.39V15H121.27ZM136.886 15V9.62L130.226 0.599999H133.926L138.446 6.28L142.946 0.599999H146.686L140.006 9.64V15H136.886Z" fill="white"/>
</svg>
